# xmcd
#
# Track frame offsets:
#	150
#	2339
#	94415
#	127637
#	159745
#	177882
#	185508
#	204787
#	211204
#	231177
#	243873
#	265619
#	276160
#
# Disc length: 3904 seconds
#
# Revision: 0
# Processed by: cddbd v1.5.1PL2 Copyright (c) Steve Scherf et al.
# Submitted via: EasyCDDAExtractor 8.1.2.3
#
DISCID=9f0f3e0d
DTITLE=G Kill - Naufragé du temps
DYEAR=1900
DGENRE=Rap
TTITLE0=intro
TTITLE1=Dj zeus - medley G kill 1996-2003
TTITLE2=2 Bal - c' est de la bal (titre inédit enregistré en 1996)
TTITLE3=exercice.com Part.1 feat doudou masta , ma3 ...
TTITLE4=feat Kid mesa - calmons les
TTITLE5=Interlude - calmons les (passi)
TTITLE6=2 Bal feat Ärsenik - (titre inédit enregistré en 1997)
TTITLE7=Interlude - rap dedans remix (kid mesa)
TTITLE8=dragon davy
TTITLE9=G kill - exercice.com Part.2 feat tonton sam , mamadou ...
TTITLE10=2 Bal feat ritmo , mystik - (titre inédit 1998)
TTITLE11=Intercule - embarquement (Lyon's)
TTITLE12=G Kill - jusqu'au bout
EXTD=
EXTT0=
EXTT1=
EXTT2=
EXTT3=
EXTT4=
EXTT5=
EXTT6=
EXTT7=
EXTT8=
EXTT9=
EXTT10=
EXTT11=
EXTT12=
PLAYORDER=
